<svg xmlns="http://www.w3.org/2000/svg" viewBox="0 0 64 64">
  <defs>
    <linearGradient id="bg" x1="0" y1="0" x2="1" y2="1">
      <stop offset="0%" stop-color="#6366f1"/>
      <stop offset="100%" stop-color="#4f46e5"/>
    </linearGradient>
  </defs>
  <!-- Rounded square background -->
  <rect width="64" height="64" rx="14" fill="url(#bg)"/>
  <!-- Document -->
  <rect x="14" y="10" width="28" height="36" rx="3" fill="#fff" opacity="0.9"/>
  <rect x="19" y="17" width="18" height="2" rx="1" fill="#a5b4fc" opacity="0.6"/>
  <rect x="19" y="23" width="14" height="2" rx="1" fill="#a5b4fc" opacity="0.6"/>
  <rect x="19" y="29" width="16" height="2" rx="1" fill="#a5b4fc" opacity="0.6"/>
  <!-- Pen/quill -->
  <g transform="translate(28, 22) rotate(35)">
    <rect x="-3" y="-22" width="6" height="28" rx="2" fill="#1e1b4b"/>
    <polygon points="-3,6 3,6 0,12" fill="#1e1b4b"/>
    <rect x="-3" y="-22" width="6" height="6" rx="2" fill="#312e81"/>
    <line x1="0" y1="10" x2="0" y2="12" stroke="#818cf8" stroke-width="1" stroke-linecap="round"/>
  </g>
  <!-- Signature squiggle -->
  <path d="M20 39 Q24 33 28 39 Q32 45 36 38" stroke="#6366f1" stroke-width="2.5" fill="none" stroke-linecap="round"/>
</svg>
