<svg xmlns="http://www.w3.org/2000/svg" viewBox="0 0 64 64">
  <defs>
    <linearGradient id="bg" x1="0" y1="0" x2="1" y2="1">
      <stop offset="0%" stop-color="#6366f1"/>
      <stop offset="100%" stop-color="#4f46e5"/>
    </linearGradient>
  </defs>
  <rect width="64" height="64" rx="14" fill="url(#bg)"/>
  <!-- Document -->
  <path d="M18 14a3 3 0 0 1 3-3h16l10 10v28a3 3 0 0 1-3 3H21a3 3 0 0 1-3-3Z" fill="#fff" opacity="0.92"/>
  <!-- Folded corner -->
  <path d="M37 11v7a3 3 0 0 0 3 3h7" fill="none" stroke="#c7d2fe" stroke-width="1.5"/>
  <path d="M37 11l10 10h-7a3 3 0 0 1-3-3Z" fill="#e0e7ff" opacity="0.7"/>
  <!-- Text lines -->
  <rect x="23" y="26" width="18" height="2" rx="1" fill="#a5b4fc" opacity="0.5"/>
  <rect x="23" y="31" width="14" height="2" rx="1" fill="#a5b4fc" opacity="0.5"/>
  <!-- Signature -->
  <path d="M23 40 Q27 34 31 40 Q35 46 39 39" stroke="#4f46e5" stroke-width="2.5" fill="none" stroke-linecap="round"/>
  <!-- Pen -->
  <g transform="translate(46, 50) rotate(-45)">
    <rect x="-2.5" y="-20" width="5" height="16" rx="1.5" fill="#1e1b4b"/>
    <rect x="-2.5" y="-20" width="5" height="4" rx="1.5" fill="#312e81"/>
    <polygon points="-2.5,-4 2.5,-4 0,2" fill="#1e1b4b"/>
    <circle cx="0" cy="1" r="0.8" fill="#818cf8"/>
  </g>
</svg>
